<?xml version="1.0" encoding="UTF-8"?>
<svg width="50px" height="50px" viewBox="0 0 50 50" version="1.1" xmlns="http://www.w3.org/2000/svg" xmlns:xlink="http://www.w3.org/1999/xlink">
    <title>light</title>
    <g id="Page-2" stroke="none" stroke-width="1" fill="none" fill-rule="evenodd">
        <g id="light" fill="#090909" fill-rule="nonzero">
            <g id="Group" transform="translate(3.515625, 6.787109)">
                <g id="note">
                    <rect id="Rectangle" opacity="0" x="0" y="0" width="29.296875" height="27.0918685"></rect>
                    <path d="M4.61575292,27.0918685 L24.6957834,27.0918685 C27.7680649,27.0918685 29.296875,25.5630885 29.296875,22.5349114 L29.296875,4.58637009 C29.296875,1.55818691 27.7680649,0.029399745 24.6957834,0.029399745 L4.61575292,0.029399745 C1.54348646,0.029399745 0,1.54348646 0,4.58637009 L0,22.5349114 C0,25.57778 1.54348646,27.0918685 4.61575292,27.0918685 Z M4.3952613,24.7251963 C3.08697292,24.7251963 2.36668125,24.0343085 2.36668125,22.6672244 L2.36668125,8.80521402 C2.36668125,7.4528514 3.08697292,6.74724211 4.3952613,6.74724211 L24.8868922,6.74724211 C26.1951806,6.74724211 26.9301727,7.4528514 26.9301727,8.80521402 L26.9301727,22.6672244 C26.9301727,24.0343085 26.1951806,24.7251963 24.8868922,24.7251963 L4.3952613,24.7251963 Z" id="Shape"></path>
                </g>
                <g id="note" transform="translate(6.835938, 4.687500)">
                    <rect id="Rectangle" opacity="0" x="0" y="0" width="29.296875" height="27.0918685"></rect>
                    <path d="M4.61575292,27.0918685 L24.6957834,27.0918685 C27.7680649,27.0918685 29.296875,25.5630885 29.296875,22.5349114 L29.296875,4.58637009 C29.296875,1.55818691 27.7680649,0.029399745 24.6957834,0.029399745 L4.61575292,0.029399745 C1.54348646,0.029399745 0,1.54348646 0,4.58637009 L0,22.5349114 C0,25.57778 1.54348646,27.0918685 4.61575292,27.0918685 Z M4.3952613,24.7251963 C3.08697292,24.7251963 2.36668125,24.0343085 2.36668125,22.6672244 L2.36668125,8.80521402 C2.36668125,7.4528514 3.08697292,6.74724211 4.3952613,6.74724211 L24.8868922,6.74724211 C26.1951806,6.74724211 26.9301727,7.4528514 26.9301727,8.80521402 L26.9301727,22.6672244 C26.9301727,24.0343085 26.1951806,24.7251963 24.8868922,24.7251963 L4.3952613,24.7251963 Z" id="Shape"></path>
                </g>
                <g id="note" transform="translate(13.671875, 9.375000)">
                    <rect id="Rectangle" opacity="0" x="0" y="0" width="29.296875" height="27.0918685"></rect>
                    <path d="M4.61575292,27.0918685 L24.6957834,27.0918685 C27.7680649,27.0918685 29.296875,25.5630885 29.296875,22.5349114 L29.296875,4.58637009 C29.296875,1.55818691 27.7680649,0.029399745 24.6957834,0.029399745 L4.61575292,0.029399745 C1.54348646,0.029399745 0,1.54348646 0,4.58637009 L0,22.5349114 C0,25.57778 1.54348646,27.0918685 4.61575292,27.0918685 Z M4.3952613,24.7251963 C3.08697292,24.7251963 2.36668125,24.0343085 2.36668125,22.6672244 L2.36668125,8.80521402 C2.36668125,7.4528514 3.08697292,6.74724211 4.3952613,6.74724211 L24.8868922,6.74724211 C26.1951806,6.74724211 26.9301727,7.4528514 26.9301727,8.80521402 L26.9301727,22.6672244 C26.9301727,24.0343085 26.1951806,24.7251963 24.8868922,24.7251963 L4.3952613,24.7251963 Z" id="Shape"></path>
                </g>
            </g>
        </g>
    </g>
</svg>